<svg width="14" height="14" viewBox="0 0 14 14" fill="none" xmlns="http://www.w3.org/2000/svg">
<path d="M13.3298 2.55263C12.3838 2.38763 11.6278 1.67463 11.4078 0.740632L13.3298 2.55263ZM13.3298 2.55263C14.2018 2.70463 14.2018 3.95663 13.3298 4.10863V2.55263ZM4.70706 9.27534C5.1615 9.72978 5.62206 10.1431 6.07674 10.5123L6.13977 10.5634L6.20281 10.5123C6.65747 10.1431 7.11801 9.72981 7.57243 9.2754C8.17167 8.67716 8.70174 8.06466 9.15458 7.46489L9.1546 7.4649L9.15587 7.46315C9.18651 7.42068 9.22216 7.38218 9.26197 7.34845C9.60243 7.64966 10.0362 7.82549 10.491 7.84597C11.1943 8.83957 11.7109 9.82007 11.9772 10.6889C12.2622 11.6207 12.3238 12.6692 11.6451 13.3469L11.6451 13.3469C11.2046 13.7873 10.6026 13.9118 10.0137 13.8768L10.0137 13.8768C9.42435 13.8418 8.76985 13.6437 8.10117 13.3396L8.10106 13.3396C7.49675 13.0656 6.85412 12.6909 6.19812 12.2317L6.14082 12.1916L6.08349 12.2317C5.42649 12.6909 4.78281 13.0656 4.17943 13.3396L4.22077 13.4306L4.17942 13.3396C3.50982 13.6437 2.85521 13.8408 2.26667 13.8768C1.67782 13.9118 1.07478 13.7873 0.634409 13.3478C0.194139 12.9075 0.0705497 12.3046 0.105597 11.7156L0.105597 11.7156C0.140599 11.1264 0.338571 10.473 0.642607 9.80346C0.95328 9.13718 1.32403 8.5006 1.75025 7.90161L1.79149 7.84366L1.75027 7.78569C1.32395 7.18607 0.953196 6.54882 0.64263 5.88186C0.338582 5.21226 0.1406 4.55891 0.105597 3.9697L0.105597 3.96969C0.0705568 3.38082 0.195079 2.77774 0.634494 2.33733C1.31323 1.6596 2.36183 1.72119 3.29351 2.00625C4.13434 2.26355 5.07971 2.75619 6.04093 3.4246C6.04991 3.67776 6.10764 3.92698 6.21112 4.15855C6.30877 4.37704 6.44529 4.57568 6.6138 4.74488C6.58517 4.77531 6.55361 4.80293 6.51954 4.82734L6.51952 4.82731L6.51731 4.82898C5.8782 5.31409 5.27331 5.8427 4.70694 6.41104C4.25368 6.86531 3.83937 7.32485 3.47007 7.78068L3.41895 7.84379L3.47023 7.90677C3.85872 8.38391 4.27155 8.8407 4.70706 9.27534ZM4.70706 9.27534L4.77777 9.20463M4.70706 9.27534C4.70709 9.27537 4.70711 9.27539 4.70713 9.27541L4.77777 9.20463M4.77777 9.20463C4.34467 8.7724 3.93412 8.31813 3.54777 7.84363L9.07477 7.40463C8.62477 8.00063 8.09777 8.60963 7.50177 9.20463C7.04977 9.65663 6.59177 10.0676 6.13977 10.4346C5.68777 10.0676 5.22977 9.65663 4.77777 9.20463ZM10.0909 12.5795C10.4663 12.6025 10.6421 12.5112 10.7248 12.43L10.7255 12.4293C10.7925 12.3623 10.8577 12.231 10.8752 12.017C10.8928 11.8018 10.8628 11.4964 10.7324 11.0704C10.5529 10.4829 10.214 9.7874 9.72768 9.03723L9.65449 8.92434L9.5675 9.02697C8.88247 9.83502 8.13249 10.5857 7.32504 11.2714L7.22342 11.3577L7.33472 11.4311C7.75041 11.7052 8.18595 11.948 8.63772 12.1574L8.63848 12.1577C9.22438 12.4234 9.71593 12.5585 10.0909 12.5795ZM10.0909 12.5795C10.0908 12.5795 10.0907 12.5794 10.0906 12.5794L10.0968 12.4796M10.0909 12.5795C10.091 12.5795 10.0911 12.5795 10.0912 12.5795L10.0968 12.4796M10.0968 12.4796C9.73877 12.4596 9.25977 12.3296 8.67977 12.0666L9.70028 9.17959C10.1529 9.8907 10.4677 10.5464 10.6368 11.0996C10.8928 11.9356 10.7448 12.2686 10.6548 12.3586C10.5988 12.4136 10.4548 12.5016 10.0968 12.4796ZM11.2918 0.682725L11.2918 0.682731L11.2923 0.685118L11.3103 0.763119L11.3104 0.763559C11.5396 1.73654 12.3272 2.47927 13.3126 2.65114L13.3126 2.65115C14.0742 2.7839 14.0742 3.87737 13.3126 4.01012C12.828 4.09447 12.3791 4.32011 12.0224 4.65872C11.6657 4.99727 11.4169 5.43364 11.3074 5.91306C11.3073 5.91316 11.3073 5.91326 11.3073 5.91336L11.2834 6.01473L11.2833 6.01544C11.117 6.74605 10.0755 6.74211 9.91444 6.01014L9.89552 5.92253L9.89547 5.92229C9.79028 5.44074 9.54397 5.00145 9.188 4.66051C8.83202 4.31957 8.38253 4.09243 7.89688 4.00811L7.89687 4.0081C7.13741 3.87629 7.13741 2.78497 7.89687 2.65316C8.38076 2.56918 8.82883 2.34342 9.18426 2.0045C9.53969 1.66557 9.7865 1.22875 9.89338 0.749395L9.8936 0.748382L9.90746 0.683001L9.9076 0.682382L9.91446 0.651015C10.0745 -0.0799008 11.116 -0.0853776 11.2841 0.644883L11.2918 0.682725ZM2.913 3.249L2.91292 3.24897C2.48643 3.11904 2.18107 3.08938 1.96594 3.10709C1.75203 3.12471 1.62103 3.18996 1.55406 3.25692C1.47197 3.33902 1.38095 3.51544 1.40294 3.89147L1.40296 3.89178C1.42598 4.26523 1.55983 4.7576 1.8257 5.34393L1.82602 5.34463C2.03527 5.79686 2.27765 6.23301 2.55119 6.64953L2.62456 6.76125L2.71103 6.65933C3.39668 5.85119 4.14733 5.10054 4.95547 4.41489L5.05785 4.32802L4.9453 4.25481C4.19605 3.76739 3.50048 3.42851 2.913 3.249ZM1.82573 10.3423L1.7615 10.4836H1.76418C1.53887 11.0082 1.4251 11.4515 1.40396 11.7945L1.40395 11.7948C1.38195 12.1698 1.47293 12.3472 1.55506 12.4293C1.63713 12.5114 1.81252 12.6025 2.1896 12.5805L2.18992 12.5804C2.56338 12.5574 3.05574 12.4236 3.64207 12.1577L3.64285 12.1573C4.09476 11.9477 4.53058 11.705 4.94674 11.4312L5.05832 11.3578L4.95645 11.2714C4.14798 10.5857 3.397 9.83508 2.71101 9.02692L2.624 8.92441L2.55086 9.03724C2.25563 9.49268 2.0121 9.93204 1.82573 10.3423ZM5.23977 7.84363C5.23977 7.60494 5.33459 7.37602 5.50338 7.20724C5.67216 7.03845 5.90108 6.94363 6.13977 6.94363C6.37847 6.94363 6.60739 7.03845 6.77617 7.20724C6.94495 7.37602 7.03977 7.60494 7.03977 7.84363C7.03977 8.08233 6.94495 8.31124 6.77617 8.48003C6.60739 8.64881 6.37847 8.74363 6.13977 8.74363C5.90108 8.74363 5.67216 8.64881 5.50338 8.48003C5.33459 8.31124 5.23977 8.08233 5.23977 7.84363Z" fill="url(#paint0_linear_486_39)" stroke="#033422" stroke-width="0.2"/>
<defs>
<linearGradient id="paint0_linear_486_39" x1="6.99189" y1="0" x2="6.99189" y2="13.9824" gradientUnits="userSpaceOnUse">
<stop stop-color="#015738"/>
<stop offset="1" stop-color="#015738" stop-opacity="0"/>
</linearGradient>
</defs>
</svg>
